<svg xmlns="http://www.w3.org/2000/svg" width="700" height="700">
  <path fill="#020202" d="M495 97h159l1 5v3l-1 12v2q-3 22-13 43l-1 2a132 132 0 0 1-78 67h-2a111 111 0 0 1-39 4l-21 1h-4q-19-1-34 11-11 12-13 28l-7 33-9 3q-22 7-42 21l-6 4v2h-2v2h-2l-1 2 3-20v-2l2-9 1-3 8-37 1-4q6-37 34-62h2v-2a102 102 0 0 1 63-19h10c27-1 52-2 73-22q7-6 10-13l-119 2h-2q-12 2-22 6l-3 1c-27 10-48 33-61 57a207 207 0 0 0-16 54l-20 103v2l-18 94a190 190 0 0 1-37 91l-2 2h-2l-1 3h-2v2h-2v2h-2v2l-3 3-2 1-3 2-2 2-24 14q-13 7-27 9l-3 1-23 1h-2q-39 1-69-23v-2l-2-1c-17-9-28-33-34-51-10-38-2-77 16-111q14-23 34-41h2v-2l4-3 2-2 3-2 2-2 11-7q38-23 81-28h3l17-1h19l-3 19v2l-5 23v2l-1 2-1 5h-2c-30 1-59 5-84 23l-3 2q-35 25-44 67-6 33 11 59 15 18 38 20 29 2 52-15l5-2v-2l7-7h2l1-2 4-6a137 137 0 0 0 18-56l28-146 13-66 2-8q8-39 30-72l1-2 4-5h2l1-2q4-6 10-12l3-3c34-36 80-48 128-48"/>
  <path fill="#020202" d="M580 252v8l-1 3v4l-1 3-6 27-1 3-5 26h26c22 0 41-2 61-14l3-1a61 61 0 0 1-21 51l-2 2c-18 15-39 16-62 16h-17v4l-3 14v2l-20 96v3c-5 23-8 45 6 65q14 19 39 25h8q15 0 28-4h5q-34 25-76 20-34-4-55-29-21-34-13-75l6-26v-3l2-5 2-14 9-43 2-8 4-21-24-1q-27-1-52 4l-3 1-19 7-3 1q-22 12-36 33l-5 6 4-18 1-2q7-25 22-45h2l1-2 7-8 2-2q5-5 6-4v-2l4-2 2-2 2-1 3-2q27-16 59-15h38v-4c3-21 9-42 27-55q20-15 44-16M168 97h229l-7 4a183 183 0 0 0-44 33l-7 8-6 7-16 1H177c-24 0-45 4-64 20l-2 2-3 1v2h-2l-1 2-5 6a83 83 0 0 0-17 58q3 25 20 41 23 16 51 11 23-6 40-22l1-2h2l1-2 4-6q15-19 19-42h2c8 18 5 36-1 53q-8 19-24 34l-2 2q-4 5-10 7v2l-7 4-2 2q-35 20-75 11-26-7-45-26l-2-2q-27-31-25-71v-4q0-16 5-33v-3q9-29 29-50l4-6h2v-2h2v-2l4-3 2-2c6-5 6-5 8-5v-2l8-5 2-2q34-19 72-19"/>
  <path fill="#030303" d="M427 402c-14 88-14 88-36 123l-3 6q-5 9-12 17l-2 3-2 2-2 2-1 2h-2v2h-2l-1 3h-2v2h-2v2q-10 9-21 16l-2 2c-20 13-50 24-74 23l6-4q21-9 38-26l2-2c22-20 32-50 39-78v-2l2-10q4-18 12-33l1-3q20-34 58-46zM629 473q17 11 22 30 3 25-10 47l-9 10-2 2a64 64 0 0 1-41 15q-24 1-40-17l-4-6 6 3q16 8 31 3 16-6 22-19 6-12 1-24-4-7-11-11-11-3-21 2l-3-1q2-19 16-30c12-9 30-10 43-4"/>
  <path fill="#3b3b39" d="m273 604 1 2-11 1q4-4 10-3"/>
  <path fill="#282827" d="m617 585-7 4-1-3c5-2 5-2 8-1"/>
  <path fill="#6a6a66" d="m618 582 1 2-2-1z"/>
</svg>