<?xml version="1.0" encoding="UTF-8"?>
<svg viewBox="0 0 700 700" xmlns="http://www.w3.org/2000/svg">
  <path d="M0 0 C1.7463277 0.00028296 3.49265552 0.00012201 5.23898315 -0.0004425 C9.92172214 -0.00072622 14.60443484 0.00510081 19.28716779 0.01213145 C24.20250641 0.01843671 29.11784582 0.01897441 34.03318787 0.02015686 C43.31515247 0.02324922 52.59710513 0.03143402 61.8790645 0.04150635 C72.45724858 0.052733 83.03543327 0.05819436 93.61362183 0.06320179 C115.34976169 0.07361867 137.08589083 0.09117702 158.82202148 0.11352539 C158.9957615 1.85144509 159.16495731 3.58981942 159.33227539 5.32836914 C159.42699127 6.29637451 159.52170715 7.26437988 159.61929321 8.26171875 C159.90484078 12.2785559 159.65453844 16.12100562 159.19702148 20.11352539 C159.06106567 21.32165894 159.06106567 21.32165894 158.92236328 22.55419922 C157.04083324 37.57583375 152.56428637 51.59509786 145.82202148 65.11352539 C145.50281738 65.76385742 145.18361328 66.41418945 144.85473633 67.08422852 C130.54915018 95.73774591 103.55205993 121.35272559 72.8918457 131.76928711 C70.72974806 132.47193123 68.56087978 133.14392053 66.38452148 133.80102539 C65.71694824 134.00373047 65.049375 134.20643555 64.36157227 134.4152832 C54.09969752 137.36412608 43.94206027 138.40099111 33.29467773 138.42211914 C30.93204498 138.44727168 28.56941483 138.47266981 26.20678711 138.49829102 C22.54281249 138.52698671 18.87888282 138.55105428 15.21484375 138.56982422 C11.63706421 138.59165604 8.05978151 138.63109183 4.48217773 138.67211914 C3.40573502 138.67223495 2.3292923 138.67235077 1.2202301 138.67247009 C-11.74018829 138.83847264 -23.57800448 141.24946433 -33.39672852 150.11743164 C-41.28898935 158.34835292 -44.27882129 167.47293441 -46.31860352 178.48852539 C-46.49312546 179.42598099 -46.6676474 180.36343658 -46.84745789 181.32929993 C-47.56718854 185.25538434 -48.27298441 189.18250225 -48.9284668 193.11987305 C-49.41831173 196.02140847 -49.95808089 198.9099965 -50.50610352 201.80102539 C-50.64083069 202.69160645 -50.77555786 203.5821875 -50.91436768 204.49975586 C-51.41123883 207.00941155 -51.86821758 208.91283923 -53.17797852 211.11352539 C-56.06296622 212.80832884 -58.91700108 213.47770777 -62.17797852 214.11352539 C-77.55388737 218.73304187 -91.17379577 225.20044836 -103.76000977 235.26586914 C-105.85529177 236.86694893 -107.77931023 238.04558683 -110.17797852 239.11352539 C-110.17797852 239.77352539 -110.17797852 240.43352539 -110.17797852 241.11352539 C-110.83797852 241.11352539 -111.49797852 241.11352539 -112.17797852 241.11352539 C-112.17797852 241.77352539 -112.17797852 242.43352539 -112.17797852 243.11352539 C-112.83797852 243.11352539 -113.49797852 243.11352539 -114.17797852 243.11352539 C-114.50797852 243.77352539 -114.83797852 244.43352539 -115.17797852 245.11352539 C-114.62608008 238.5048382 -113.71142272 232.09161767 -112.35766602 225.60180664 C-112.17827484 224.72277679 -111.99888367 223.84374695 -111.8140564 222.93807983 C-111.232743 220.0995173 -110.64350234 217.26268507 -110.05297852 214.42602539 C-109.75151917 212.96829208 -109.75151917 212.96829208 -109.44396973 211.48110962 C-106.8432225 198.90596736 -104.20264731 186.33903046 -101.42797852 173.80102539 C-101.17129395 172.62000244 -100.91460937 171.43897949 -100.65014648 170.22216797 C-95.25129622 146.28726512 -85.21054035 124.37575214 -66.17797852 108.11352539 C-65.51797852 108.11352539 -64.85797852 108.11352539 -64.17797852 108.11352539 C-64.17797852 107.45352539 -64.17797852 106.79352539 -64.17797852 106.11352539 C-62.08189734 104.57619784 -60.00331091 103.17482411 -57.80297852 101.80102539 C-57.16102539 101.39730713 -56.51907227 100.99358887 -55.85766602 100.57763672 C-40.65957918 91.13012599 -25.69060589 87.04766171 -7.86547852 86.86743164 C-5.63240202 86.83446992 -3.3993292 86.8012587 -1.16625977 86.76782227 C2.31759942 86.72067707 5.80144631 86.6762589 9.28540039 86.63671875 C36.10553404 86.31802213 61.12740162 84.91051556 81.62670898 65.42602539 C85.44938426 61.39929271 89.32372707 57.11011423 91.82202148 52.11352539 C78.06862424 52.19837301 64.31533741 52.29342322 50.5620985 52.40105247 C44.17407028 52.45073248 37.78605638 52.49706209 31.39794922 52.53540039 C25.21866788 52.57261427 19.03951533 52.61906564 12.86034584 52.6715889 C10.51760458 52.68994309 8.17483592 52.7051188 5.83205223 52.71686935 C-5.05712875 52.77337601 -15.89398118 52.88881425 -26.73535156 53.9909668 C-27.84053871 54.10158479 -27.84053871 54.10158479 -28.96805286 54.21443748 C-36.70377988 55.10837518 -43.88807234 57.46117113 -51.17797852 60.11352539 C-52.06485352 60.41000977 -52.95172852 60.70649414 -53.86547852 61.01196289 C-80.8810782 70.69847725 -102.16426358 93.6268096 -115.09350586 118.55688477 C-122.36250038 134.13805775 -126.40040704 150.43532835 -129.67797852 167.23852539 C-130.03244576 169.00565366 -130.38791449 170.77258134 -130.74438477 172.53930664 C-132.80157223 182.8008766 -134.73794044 193.08403929 -136.65311813 203.37293243 C-139.6792421 219.6268525 -142.88741879 235.84018153 -146.15722656 252.04666138 C-147.69894393 259.68880719 -149.23276778 267.3325369 -150.76391602 274.97680664 C-150.98939495 276.10237252 -150.98939495 276.10237252 -151.21942902 277.25067711 C-153.94879534 290.88503484 -156.58266789 304.53603801 -159.1529541 318.20129395 C-161.32123735 329.72509676 -163.6026837 341.21481542 -166.03369141 352.68676758 C-167.32602072 358.82917411 -168.53607979 364.97708801 -169.63500977 371.15649414 C-175.41060416 403.59041183 -183.66570679 432.6944134 -204.17797852 459.11352539 C-204.91145508 460.09063477 -205.64493164 461.06774414 -206.40063477 462.07446289 C-206.9871582 462.74735352 -207.57368164 463.42024414 -208.17797852 464.11352539 C-208.83797852 464.11352539 -209.49797852 464.11352539 -210.17797852 464.11352539 C-210.50797852 465.10352539 -210.83797852 466.09352539 -211.17797852 467.11352539 C-211.83797852 467.11352539 -212.49797852 467.11352539 -213.17797852 467.11352539 C-213.17797852 467.77352539 -213.17797852 468.43352539 -213.17797852 469.11352539 C-213.83797852 469.11352539 -214.49797852 469.11352539 -215.17797852 469.11352539 C-215.17797852 469.77352539 -215.17797852 470.43352539 -215.17797852 471.11352539 C-215.83797852 471.11352539 -216.49797852 471.11352539 -217.17797852 471.11352539 C-217.17797852 471.77352539 -217.17797852 472.43352539 -217.17797852 473.11352539 C-218.51635742 474.40698242 -218.51635742 474.40698242 -220.40454102 475.87133789 C-221.0998291 476.41081055 -221.79511719 476.9502832 -222.51147461 477.50610352 C-223.2676709 478.07780273 -224.02386719 478.64950195 -224.80297852 479.23852539 C-225.57335449 479.82311523 -226.34373047 480.40770508 -227.13745117 481.01000977 C-233.86222139 486.0282881 -240.71919604 490.26945422 -248.17797852 494.11352539 C-249.05067383 494.58145508 -249.92336914 495.04938477 -250.82250977 495.53149414 C-259.4167761 499.82202649 -268.84666307 502.01460658 -278.17797852 504.11352539 C-279.00450928 504.30261475 -279.83104004 504.4917041 -280.68261719 504.68652344 C-288.58921717 506.3212337 -296.43647415 506.55686033 -304.49047852 506.55102539 C-305.19151703 506.55109589 -305.89255554 506.55116638 -306.61483765 506.55123901 C-331.56562635 506.45525401 -355.83526144 499.53920794 -375.17797852 483.11352539 C-375.17797852 482.45352539 -375.17797852 481.79352539 -375.17797852 481.11352539 C-375.74000977 480.87504883 -376.30204102 480.63657227 -376.88110352 480.39086914 C-393.8531778 470.95231763 -405.51435015 446.61429143 -410.75976562 428.61743164 C-420.96460876 391.29254494 -413.27360194 351.92412175 -394.77954102 318.55493164 C-386.10462245 303.44994835 -374.36397913 288.54483316 -361.17797852 277.11352539 C-360.51797852 277.11352539 -359.85797852 277.11352539 -359.17797852 277.11352539 C-359.17797852 276.45352539 -359.17797852 275.79352539 -359.17797852 275.11352539 C-357.60839844 273.71240234 -357.60839844 273.71240234 -355.40844727 272.10180664 C-354.60793945 271.51230225 -353.80743164 270.92279785 -352.98266602 270.31542969 C-352.11899414 269.69192627 -351.25532227 269.06842285 -350.36547852 268.42602539 C-349.48762695 267.78898682 -348.60977539 267.15194824 -347.70532227 266.49560547 C-345.20388456 264.69052769 -342.69361364 262.89874599 -340.17797852 261.11352539 C-339.17379883 260.39938477 -338.16961914 259.68524414 -337.13500977 258.94946289 C-313.27477806 242.9414855 -284.38567064 234.63329014 -256.17797852 231.11352539 C-255.10547852 230.97946289 -254.03297852 230.84540039 -252.92797852 230.70727539 C-247.49441727 230.17573136 -242.06034548 230.07252262 -236.60375977 230.05883789 C-235.41733887 230.05585693 -234.23091797 230.05287598 -233.00854492 230.04980469 C-227.731541 230.05157288 -222.45483603 230.07512031 -217.17797852 230.11352539 C-217.80728283 236.44550278 -218.75370028 242.61615473 -219.99047852 248.85571289 C-220.16426025 249.74590118 -220.33804199 250.63608948 -220.51708984 251.55325317 C-220.88180722 253.41743473 -221.24828392 255.28127288 -221.61645508 257.14477539 C-222.18038436 260.00070942 -222.73819356 262.85778983 -223.29516602 265.71508789 C-223.65157981 267.53286627 -224.00833832 269.35057709 -224.36547852 271.16821289 C-224.53217041 272.0213205 -224.6988623 272.8744281 -224.87060547 273.75338745 C-225.10589966 274.94074997 -225.10589966 274.94074997 -225.34594727 276.15209961 C-225.48282959 276.84665253 -225.61971191 277.54120544 -225.76074219 278.25680542 C-226.17797852 280.11352539 -226.17797852 280.11352539 -227.17797852 283.11352539 C-228.11927612 283.13539917 -228.11927612 283.13539917 -229.07958984 283.15771484 C-259.16967501 283.93333139 -288.03882033 288.34852027 -313.17797852 306.11352539 C-314.1409082 306.7799707 -315.10383789 307.44641602 -316.09594727 308.13305664 C-338.77756543 324.41804769 -355.17162086 347.8375482 -360.30249023 375.57568359 C-363.58742803 396.00761525 -361.37422281 416.75514231 -349.17797852 433.92993164 C-339.33652611 445.77947452 -325.96945661 451.92001749 -310.95922852 453.82836914 C-292.14469182 455.24723399 -274.28381796 450.31225148 -258.98266602 439.31274414 C-257.17797852 438.11352539 -257.17797852 438.11352539 -254.17797852 437.11352539 C-254.17797852 436.45352539 -254.17797852 435.79352539 -254.17797852 435.11352539 C-252.19537426 433.42620262 -250.19474431 431.75986482 -248.17797852 430.11352539 C-247.84797852 429.45352539 -247.51797852 428.79352539 -247.17797852 428.11352539 C-246.51797852 428.11352539 -245.85797852 428.11352539 -245.17797852 428.11352539 C-244.90211914 427.52700195 -244.62625977 426.94047852 -244.34204102 426.33618164 C-243.23031576 424.21345792 -241.98463593 422.46656702 -240.55297852 420.55102539 C-230.26378777 405.01685692 -226.66885984 387.10959646 -223.17797852 369.11352539 C-222.82694412 367.31468949 -222.47586745 365.51586185 -222.12475586 363.71704102 C-220.01868715 352.90234645 -217.94636338 342.08135096 -215.88500977 331.25805664 C-213.2059231 317.19864973 -210.44771552 303.15530861 -207.67797852 289.11352539 C-204.04994298 270.70532694 -200.46349008 252.28972179 -196.92797852 233.86352539 C-196.72032867 232.7816394 -196.51267883 231.69975342 -196.29873657 230.58508301 C-195.48938968 226.36813334 -194.68018514 222.1511564 -193.87117004 217.93414307 C-185.28500116 173.18467606 -185.28500116 173.18467606 -180.72338867 151.71411133 C-180.18662474 149.1547517 -179.66947841 146.59219795 -179.15844727 144.02758789 C-173.84998088 117.56157998 -164.47077102 94.65918582 -149.30297852 72.23852539 C-148.82626709 71.52937988 -148.34955566 70.82023437 -147.85839844 70.08959961 C-146.68554932 68.39232631 -145.43811678 66.74703795 -144.17797852 65.11352539 C-143.51797852 65.11352539 -142.85797852 65.11352539 -142.17797852 65.11352539 C-141.92790039 64.54633789 -141.67782227 63.97915039 -141.42016602 63.39477539 C-138.86015291 58.69336767 -134.82383986 54.9889212 -131.17797852 51.11352539 C-130.28723633 50.15704102 -129.39649414 49.20055664 -128.47875977 48.21508789 C-94.03592129 12.03488315 -48.41971463 -0.1119804 0 0 Z" fill="#000000" transform="translate(495.177978515625,96.886474609375)"/>
  <path d="M0 0 C1.1377374 3.41321219 0.83256337 4.68111694 0.05957031 8.13549805 C-0.28639191 9.70940559 -0.28639191 9.70940559 -0.63934326 11.31510925 C-0.89757874 12.45249039 -1.15581421 13.58987152 -1.421875 14.76171875 C-1.68252747 15.9403096 -1.94317993 17.11890045 -2.21173096 18.33320618 C-3.05040052 22.11966463 -3.89968392 25.90364153 -4.75 29.6875 C-5.85266931 34.62808531 -6.95089632 39.56964523 -8.046875 44.51171875 C-8.30988403 45.69506805 -8.57289307 46.87841736 -8.84387207 48.09762573 C-10.74466331 56.70220565 -12.48695488 65.31860743 -14 74 C-7.61783756 74.07715349 -1.23579873 74.12905315 5.14672852 74.16479492 C7.31018568 74.17972196 9.47361345 74.20007093 11.63696289 74.22631836 C34.10136967 74.49170746 53.15782659 72.37300959 72.734375 60.35546875 C75 59 75 59 76 59 C76.99347503 74.96919125 72.30906206 90.7230018 61.8984375 102.89453125 C59.6615963 105.37530781 57.4800674 107.75612949 55 110 C54.35160156 110.60328125 53.70320313 111.2065625 53.03515625 111.828125 C35.25171313 127.33315694 13.73942908 128.17966385 -8.6875 128.0625 C-10.37174346 128.05747338 -12.05598837 128.05291253 -13.74023438 128.04882812 C-17.82685953 128.03791827 -21.91341328 128.02071821 -26 128 C-26.13124268 129.30670654 -26.26248535 130.61341309 -26.39770508 131.9597168 C-26.91275865 136.57930958 -27.70868203 141.09231881 -28.63671875 145.64453125 C-28.79637619 146.44262711 -28.95603363 147.24072296 -29.12052917 148.06300354 C-29.63881059 150.64700146 -30.16294691 153.22976857 -30.6875 155.8125 C-31.05433917 157.63294706 -31.42103684 159.45342265 -31.78759766 161.27392578 C-33.74946587 170.9891958 -35.76646829 180.69038507 -37.875 190.375 C-40.81662954 203.88637501 -43.53407229 217.44177927 -46.25 231 C-46.47073181 232.09866394 -46.69146362 233.19732788 -46.91888428 234.32928467 C-47.557557 237.51074275 -48.19332992 240.69276618 -48.828125 243.875 C-49.01748627 244.81783844 -49.20684753 245.76067688 -49.40194702 246.73208618 C-53.94656641 269.61151906 -56.66178476 291.53225313 -43 312 C-33.23239175 324.99091897 -20.51089919 333.15449081 -4.49609375 336.52734375 C-2.31749029 336.81184832 -0.19574763 336.94097453 2 337 C2.80179688 337.05027344 3.60359375 337.10054687 4.4296875 337.15234375 C13.32627403 337.48233583 23.52620972 336.28457914 31.7890625 332.8359375 C34 332 34 332 37 333 C14.69668959 349.6781392 -11.74631665 356.48192673 -39.375 353.25 C-60.5899008 350.12952429 -80.61844711 341.01396338 -93.8359375 323.578125 C-108.70924195 301.62538742 -111.25216578 274.5899935 -106.66381836 248.93261719 C-105.78951064 244.57776249 -104.84002682 240.24235658 -103.86425781 235.90917969 C-102.87969017 231.50596652 -101.98112383 227.08618054 -101.0859375 222.6640625 C-100.82969101 221.39913719 -100.82969101 221.39913719 -100.56826782 220.10865784 C-100.20938497 218.33666733 -99.85059196 216.56465863 -99.49188232 214.79263306 C-98.5444753 210.12699506 -97.58395538 205.46405666 -96.625 200.80078125 C-93.67931995 186.46160808 -90.76400091 172.11626567 -87.84828568 157.77097702 C-87.30197552 155.08324875 -86.75553587 152.39554682 -86.20909691 149.70784473 C-84.80573896 142.805296 -83.40271955 135.9026785 -82 129 C-88.04209209 128.80427026 -94.08438573 128.62619079 -100.12744141 128.46289062 C-102.17347403 128.40530097 -104.21938806 128.34328884 -106.26513672 128.27636719 C-123.68710505 127.71133038 -141.01320045 127.94143434 -158 132.3125 C-158.87317871 132.5297876 -159.74635742 132.7470752 -160.64599609 132.97094727 C-167.39003138 134.70990823 -173.75198339 136.89464249 -180 140 C-181.35738281 140.65935547 -181.35738281 140.65935547 -182.7421875 141.33203125 C-197.96606788 149.15960714 -209.70588734 160.00570017 -219.0546875 174.1796875 C-220.5925557 176.40928758 -222.00032147 178.20154698 -224 180 C-223.40319098 173.88446287 -222.11705494 168.30415773 -220.3125 162.4375 C-219.90994995 161.12422729 -219.90994995 161.12422729 -219.49926758 159.78442383 C-214.39490219 143.43583231 -207.44595017 128.62666379 -197 115 C-196.34 115 -195.68 115 -195 115 C-194.690625 114.20335937 -194.690625 114.20335937 -194.375 113.390625 C-192.42038808 109.99226564 -189.77876283 107.48944072 -187 104.75 C-186.4534375 104.19570313 -185.906875 103.64140625 -185.34375 103.0703125 C-181.2533867 99 -181.2533867 99 -179 99 C-179 98.34 -179 97.68 -179 97 C-177.5222168 95.8425293 -177.5222168 95.8425293 -175.44921875 94.57421875 C-174.69406982 94.10967285 -173.9389209 93.64512695 -173.16088867 93.16650391 C-171.93656128 92.43439697 -171.93656128 92.43439697 -170.6875 91.6875 C-169.85516846 91.18911621 -169.02283691 90.69073242 -168.1652832 90.17724609 C-149.89039672 79.35492838 -130.48413401 74.79835831 -109.28125 74.90234375 C-108.18276733 74.9037587 -107.08428467 74.90517365 -105.95251465 74.90663147 C-102.46831457 74.91219743 -98.98418042 74.92474361 -95.5 74.9375 C-93.1276051 74.9425194 -90.75520918 74.94708154 -88.3828125 74.95117188 C-82.58851944 74.9621557 -76.79426443 74.9788597 -71 75 C-70.85377197 73.78376953 -70.70754395 72.56753906 -70.55688477 71.31445312 C-67.88203922 49.9720075 -61.81464725 29.46456221 -44.34960938 15.69921875 C-31.06489613 5.89130474 -16.32652541 1.29521496 0 0 Z" fill="#000000" transform="translate(580,252)"/>
  <path d="M0 0 C0.98536769 -0.00085442 1.97073537 -0.00170885 2.98596269 -0.00258917 C6.25468371 -0.00422312 9.52335226 0.00124295 12.79206848 0.00672913 C15.14834085 0.00701147 17.5046133 0.00685233 19.86088562 0.00628662 C26.23400568 0.00600051 32.60710679 0.01186719 38.98022246 0.01886058 C44.9729015 0.02448971 50.96558059 0.025485 56.95826177 0.02651245 C68.82067355 0.02869609 80.68307842 0.03533745 92.54548645 0.04481506 C104.06241318 0.05400703 115.57933803 0.06107912 127.0962677 0.06532288 C128.16277068 0.06571696 128.16277068 0.06571696 129.25081917 0.06611901 C132.81803521 0.06742413 136.38525126 0.06868782 139.95246732 0.06993091 C169.50292803 0.08028208 199.05338192 0.09795642 228.60383606 0.12025452 C226.22891766 1.70353345 223.95075004 3.02620232 221.42805481 4.33509827 C205.52754076 12.7221826 192.56681314 22.76108423 179.60383606 35.12025452 C178.85231262 35.83052795 178.10078918 36.54080139 177.32649231 37.27259827 C173.39881218 41.01963594 173.39881218 41.01963594 170.28446293 45.42939091 C168.6338615 48.22977867 167.15252349 50.08248158 164.60383606 52.12025452 C159.19995215 53.46228293 153.85869082 53.29791753 148.33406067 53.20204163 C146.67102178 53.20609474 145.00798856 53.21413387 143.34498596 53.22584534 C138.83770245 53.24659019 134.33230328 53.21239907 129.82524562 53.16886592 C125.09519716 53.13318139 120.36534942 53.15012697 115.63522339 53.16189575 C106.66681518 53.17660607 97.69914343 53.14730814 88.73086506 53.10072476 C75.60679284 53.03424384 62.4826654 53.02772758 49.35844517 53.02839756 C48.39180138 53.02842539 47.42515759 53.02845322 46.42922157 53.0284819 C44.49982036 53.02855695 42.57041916 53.02875443 40.64101797 53.02907759 C35.0240891 53.02846278 29.40744653 53.0132089 23.79059112 52.98477447 C20.27838123 52.96826886 16.7661765 52.95959762 13.25393677 52.95227814 C11.63917535 52.9470258 10.02442042 52.93829167 8.40970039 52.92559242 C-15.38908162 52.7420087 -36.88126041 57.18972294 -55.39616394 73.12025452 C-55.93241394 73.68357483 -56.46866394 74.24689514 -57.02116394 74.82728577 C-58.39616394 76.12025452 -58.39616394 76.12025452 -60.39616394 76.12025452 C-60.39616394 76.78025452 -60.39616394 77.44025452 -60.39616394 78.12025452 C-61.05616394 78.12025452 -61.71616394 78.12025452 -62.39616394 78.12025452 C-62.65139832 78.69388733 -62.90663269 79.26752014 -63.16960144 79.85853577 C-64.52497347 82.35777272 -66.13360067 84.18330581 -68.02116394 86.30775452 C-80.73020316 102.04385581 -86.77913487 124.00295729 -84.9974823 144.01210022 C-83.26143239 159.70396883 -77.44147891 174.95861398 -65.05241394 185.26869202 C-49.71399052 195.9604754 -33.03246929 198.94532837 -14.59147644 195.76869202 C0.98892311 192.60689944 14.1600838 185.07530561 25.60383606 174.12025452 C25.93383606 173.46025452 26.26383606 172.80025452 26.60383606 172.12025452 C27.26383606 172.12025452 27.92383606 172.12025452 28.60383606 172.12025452 C28.870672 171.5363092 29.13750793 170.95236389 29.41242981 170.35072327 C30.62788502 168.0752317 31.98941951 166.38717498 33.66633606 164.43275452 C43.16394694 152.35750395 49.87786886 137.22665608 52.60383606 122.12025452 C53.26383606 122.12025452 53.92383606 122.12025452 54.60383606 122.12025452 C62.30334218 139.66796615 59.7553796 157.67142711 53.35871887 175.20814514 C48.16538796 188.36279186 39.74264734 199.2067678 29.91633606 209.18275452 C29.27438293 209.8387262 28.63242981 210.49469788 27.97102356 211.17054749 C24.73356016 214.37519876 22.11238547 216.87027428 17.60383606 218.12025452 C17.60383606 218.78025452 17.60383606 219.44025452 17.60383606 220.12025452 C15.36037231 221.66131126 13.13731259 223.06342554 10.79133606 224.43275452 C10.10426575 224.83647278 9.41719543 225.24019104 8.70930481 225.65614319 C-14.14150549 238.9067355 -40.838125 242.91347155 -66.73600769 237.15541077 C-84.11120985 232.24139948 -98.72283583 223.95985078 -111.39616394 211.12025452 C-112.13608582 210.37904358 -112.87600769 209.63783264 -113.63835144 208.87416077 C-132.02359718 189.38007725 -138.56912634 163.89256649 -138.58366394 137.87025452 C-138.59591003 136.73201233 -138.60815613 135.59377014 -138.62077332 134.42103577 C-138.64047624 122.84885348 -136.95115453 111.90348841 -133.70866394 100.80775452 C-133.44666199 99.90968079 -133.18466003 99.01160706 -132.91471863 98.08631897 C-127.17465929 79.02112187 -117.86035736 62.58107287 -104.64616394 47.69447327 C-102.31677547 45.1419203 -102.31677547 45.1419203 -100.39616394 42.12025452 C-99.73616394 42.12025452 -99.07616394 42.12025452 -98.39616394 42.12025452 C-98.39616394 41.46025452 -98.39616394 40.80025452 -98.39616394 40.12025452 C-97.73616394 40.12025452 -97.07616394 40.12025452 -96.39616394 40.12025452 C-96.39616394 39.46025452 -96.39616394 38.80025452 -96.39616394 38.12025452 C-94.78678894 36.49916077 -94.78678894 36.49916077 -92.64616394 34.68275452 C-91.95007019 34.08591858 -91.25397644 33.48908264 -90.53678894 32.87416077 C-84.73469401 28.12025452 -84.73469401 28.12025452 -82.39616394 28.12025452 C-82.39616394 27.46025452 -82.39616394 26.80025452 -82.39616394 26.12025452 C-79.98840337 24.14200049 -77.24414493 22.6105563 -74.58366394 20.99525452 C-73.3748053 20.26036804 -73.3748053 20.26036804 -72.14152527 19.51063538 C-49.93266201 6.3621471 -25.74694666 -0.08352507 0 0 Z" fill="#000000" transform="translate(168.3961639404297,96.87974548339844)"/>
  <path d="M0 0 C-13.83141677 87.92437498 -13.83141677 87.92437498 -36 123 C-36.99089091 124.86883053 -37.97044098 126.74372671 -38.9375 128.625 C-42.33006289 134.8938662 -46.62426284 140.39358676 -51 146 C-51.680625 146.91007813 -52.36125 147.82015625 -53.0625 148.7578125 C-53.68125 149.58023438 -54.3 150.40265625 -54.9375 151.25 C-55.48277344 151.97703125 -56.02804687 152.7040625 -56.58984375 153.453125 C-57.05519531 153.96359375 -57.52054687 154.4740625 -58 155 C-58.66 155 -59.32 155 -60 155 C-60 155.66 -60 156.32 -60 157 C-60.66 157 -61.32 157 -62 157 C-62.33 157.99 -62.66 158.98 -63 160 C-63.66 160 -64.32 160 -65 160 C-65 160.66 -65 161.32 -65 162 C-65.66 162 -66.32 162 -67 162 C-67 162.66 -67 163.32 -67 164 C-73.43159665 170.0036387 -80.70583162 175.10673344 -88 180 C-88.78117187 180.55171875 -89.56234375 181.1034375 -90.3671875 181.671875 C-110.27527396 195.19200848 -139.6144815 206.09188889 -164 205 C-161.95826109 202.95826109 -160.6856541 202.33151742 -158.0625 201.25 C-143.50405449 194.90102935 -131.53113762 185.84331537 -120 175 C-119.11441406 174.21109375 -119.11441406 174.21109375 -118.2109375 173.40625 C-96.26652695 153.02186863 -85.80819243 123.04062604 -79.3125 94.68359375 C-79.0886261 93.70873772 -79.0886261 93.70873772 -78.86022949 92.71418762 C-78.11731072 89.47346554 -77.3862182 86.23129082 -76.67382812 82.98364258 C-74.05438517 71.34946374 -70.5577535 60.02863587 -64.875 49.5 C-64.30966553 48.44353271 -64.30966553 48.44353271 -63.73291016 47.36572266 C-51.3009729 24.91145158 -30.61236606 8.01476401 -5.875 0.625 C-3 0 -3 0 0 0 Z" fill="#000000" transform="translate(427,402)"/>
  <path d="M0 0 C10.81366911 6.80429333 18.18051761 16.8682027 21.10546875 29.421875 C23.44277123 46.5410364 20.53218218 61.77116165 11.5390625 76.59765625 C8.78048378 80.21402623 5.79631879 83.4287523 2.5390625 86.59765625 C2.02214844 87.14679688 1.50523437 87.6959375 0.97265625 88.26171875 C-9.58921316 98.57539802 -25.93784275 103.50060865 -40.2734375 104.03515625 C-56.4903753 103.60174143 -69.4852435 98.1466495 -80.90234375 86.4921875 C-82.45072609 84.61006862 -83.47177175 82.81712767 -84.4609375 80.59765625 C-82.30034964 81.67795018 -80.1463263 82.76297742 -78.0078125 83.88671875 C-68.02414985 88.65545147 -57.75724065 89.24374695 -47.0234375 86.47265625 C-37.30751859 82.9781913 -29.75622281 76.57968324 -25.1484375 67.34765625 C-21.94665917 59.48387432 -21.62458847 51.56644638 -24.4609375 43.59765625 C-27.31931848 38.47228347 -30.57066926 35.2492381 -35.6484375 32.34765625 C-43.27840026 30.31299951 -49.32470135 31.71812237 -56.4609375 34.59765625 C-57.9459375 34.10265625 -57.9459375 34.10265625 -59.4609375 33.59765625 C-57.82126326 20.72498983 -53.43307818 12.03562144 -43.4609375 3.59765625 C-31.38837248 -5.40189222 -13.5452471 -6.8489348 0 0 Z" fill="#000000" transform="translate(629.4609375,473.40234375)"/>
</svg>
